# xmcd
#
# Track frame offsets: 
#        150
#        17475
#        40789
#        61406
#        81773
#        94147
#        115594
#        134066
#        158531
#        174450
#        189300
#        213955
#        236589
#
# Disc length: 3402 seconds
#
# Revision: 3
# Processed by: cddbd v1.5.1PL0 Copyright (c) Steve Scherf et al.
# Submitted via: ExactAudioCopy v0.95a5
#
DISCID=9f0d480d
DTITLE=The Walt Wilkins Band - Fire, Honey and Angels
DYEAR=2000
DGENRE=Country
TTITLE0=Mechanicsville
TTITLE1=Our Lady Of The Avenue
TTITLE2=Moan and Whine
TTITLE3=Ruby's 2 Sad Daughters
TTITLE4=Salinda
TTITLE5=Don't Make Me Do It
TTITLE6=Sandy Loam
TTITLE7=Lessons Never Learned
TTITLE8=My 1st Night In Denver
TTITLE9=I Would Not Make It Through
TTITLE10=Big Hopes
TTITLE11=A Little Farther West
TTITLE12=(Uncredited)
EXTD=
EXTT0=
EXTT1=
EXTT2=
EXTT3=
EXTT4=
EXTT5=
EXTT6=
EXTT7=
EXTT8=
EXTT9=
EXTT10=
EXTT11=
EXTT12=
PLAYORDER=
